<svg width="20" height="25" viewBox="0 0 20 25" fill="none" xmlns="http://www.w3.org/2000/svg">
<path d="M14.8873 5.03513C12.7055 2.4264 10.5525 0.731083 10.4619 0.660211C9.97098 0.276177 9.2497 0.625712 9.2497 1.25081V4.54873C9.2497 6.25187 6.99626 6.85138 6.15118 5.37089C5.89019 4.91369 5.25196 4.86194 4.91977 5.26735C2.64951 8.03756 0.625 11.5295 0.625 15.1253C0.625 20.2945 4.83048 24.5 9.99967 24.5C15.1689 24.5 19.3743 20.2945 19.3743 15.1253C19.3743 11.4359 17.2426 7.85119 14.8873 5.03513ZM9.99967 23C5.65751 23 2.12495 19.4675 2.12495 15.1253C2.12495 12.1001 3.85471 9.10777 5.51314 6.9344C7.47784 8.66946 10.7496 7.33615 10.7496 4.54873V2.88763C14.0754 5.9261 17.8744 10.6287 17.8744 15.1253C17.8744 19.4675 14.3418 23 9.99967 23Z" fill="grey"/>
<path d="M13.0854 11.1584C12.7585 10.9042 12.2874 10.963 12.033 11.29L6.78315 18.0397C6.39747 18.5357 6.75882 19.2502 7.37464 19.2502C7.59813 19.2502 7.81928 19.1507 7.96717 18.9606L13.217 12.2109C13.4713 11.8839 13.4124 11.4127 13.0854 11.1584Z" fill="grey"/>
<path d="M12.624 19.2502C13.4524 19.2502 14.1239 18.5787 14.1239 17.7503C14.1239 16.9219 13.4524 16.2503 12.624 16.2503C11.7956 16.2503 11.124 16.9219 11.124 17.7503C11.124 18.5787 11.7956 19.2502 12.624 19.2502Z" fill="grey"/>
<path d="M7.37495 14.0004C8.20335 14.0004 8.8749 13.3288 8.8749 12.5004C8.8749 11.672 8.20335 11.0005 7.37495 11.0005C6.54655 11.0005 5.875 11.672 5.875 12.5004C5.875 13.3288 6.54655 14.0004 7.37495 14.0004Z" fill="grey"/>
</svg>
